<svg width="256" height="256" viewBox="0 0 256 256" fill="none" xmlns="http://www.w3.org/2000/svg">
  <rect width="256" height="256" rx="60" fill="url(#gradient)"/>
  <path d="M128 76C128 69.3726 122.627 64 116 64H76C69.3726 64 64 69.3726 64 76V116C64 122.627 69.3726 128 76 128H116C122.627 128 128 122.627 128 116V76Z" fill="white" fill-opacity="0.9"/>
  <path d="M192 140C192 133.373 186.627 128 180 128H140C133.373 128 128 133.373 128 140V180C128 186.627 133.373 192 140 192H180C186.627 192 192 186.627 192 180V140Z" fill="white" fill-opacity="0.7"/>
  <path d="M160 76C160 69.3726 154.627 64 148 64C141.373 64 136 69.3726 136 76V108C136 114.627 141.373 120 148 120C154.627 120 160 114.627 160 108V76Z" fill="white" fill-opacity="0.8"/>
  <path d="M120 140C120 133.373 114.627 128 108 128H76C69.3726 128 64 133.373 64 140C64 146.627 69.3726 152 76 152H108C114.627 152 120 146.627 120 140Z" fill="white" fill-opacity="0.8"/>
  <defs>
    <linearGradient id="gradient" x1="0" y1="0" x2="256" y2="256" gradientUnits="userSpaceOnUse">
      <stop stop-color="#3B82F6"/>
      <stop offset="1" stop-color="#8B5CF6"/>
    </linearGradient>
  </defs>
</svg>